# AST/ASF file generated using VICON BodyLanguage
# -----------------------------------------------
:version 1.10
:name VICON
:units
  mass 1.0
  length 0.45
  angle deg
:documentation
   .ast/.asf automatically generated from VICON data using
   VICON BodyBuilder and BodyLanguage model FoxedUp or BRILLIANT.MOD
:root
   order TX TY TZ RX RY RZ
   axis XYZ
   position 0 0 0  
   orientation 0 0 0 
:bonedata
  begin
     id 1 
     name lhipjoint
     direction 0.671379 -0.66392 0.329334 
     length 2.38647 
     axis 0 0 0  XYZ
  end
  begin
     id 2 
     name lfemur
     direction 0.34202 -0.939693 0  
     length 6.48179  
     axis 0 0 20  XYZ
    dof rx ry rz
    limits (-160.0 20.0)
           (-70.0 70.0)
           (-60.0 70.0)
  end
  begin
     id 3 
     name ltibia
     direction 0.34202 -0.939693 0   
     length 6.86524   
     axis 0 0 20   XYZ
    dof rx
    limits (-10.0 170.0)
  end
  begin
     id 4 
     name lfoot
     direction 0.204886 -0.562919 0.800715   
     length 1.73031   
     axis -90 7.62852e-016 20   XYZ
    dof rx rz
    limits (-45.0 90.0)
           (-70.0 20.0)
  end
  begin
     id 5 
     name ltoes
     direction 1.53548e-011 -4.21841e-011 1   
     length 0.828161   
     axis -90 7.62852e-016 20   XYZ
    dof rx
    limits (-90.0 20.0)
  end
  begin
     id 6 
     name rhipjoint
     direction -0.662732 -0.670855 0.332775   
     length 2.3618  
     axis 0 0 0  XYZ 
  end
  begin
     id 7 
     name rfemur
     direction -0.34202 -0.939693 0   
     length 6.3025   
     axis 0 0 -20   XYZ
    dof rx ry rz
    limits (-160.0 20.0)
           (-70.0 70.0)
           (-70.0 60.0)
  end
  begin
     id 8 
     name rtibia
     direction -0.34202 -0.939693 0   
     length 6.8732   
     axis 0 0 -20   XYZ
    dof rx
    limits (-10.0 170.0)
 end
 begin
     id 9 
     name rfoot
     direction -0.173856 -0.477665 0.861168   
     length 1.54784  
     axis -90 -7.62852e-016 -20   XYZ
    dof rx rz
    limits (-45.0 90.0)
           (-20.0 70.0)
  end
  begin
     id 10 
     name rtoes
     direction -1.53562e-011 -4.21802e-011 1   
     length 0.759618   
     axis -90 -7.62852e-016 -20   XYZ
    dof rx
    limits (-90.0 20.0)
  end
  begin
     id 11 
     name lowerback
     direction -0.0278357 0.999497 -0.0151789   
     length 1.97203   
     axis 0 0 0   XYZ
    dof rx ry rz
    limits (-20.0 45.0)
           (-30.0 30.0)
           (-30.0 30.0)
  end
  begin
     id 12 
     name upperback
     direction -0.00360622 0.997542 0.0699804   
     length 1.94709   
     axis 0 0 0   XYZ
    dof rx ry rz
    limits (-20.0 45.0)
           (-30.0 30.0)
           (-30.0 30.0)
  end
  begin
     id 13 
     name thorax
     direction 0.00907706 0.997048 0.0762461   
     length 1.95722   
     axis 0 0 0   XYZ
    dof rx ry rz
    limits (-20.0 45.0)
           (-30.0 30.0)
           (-30.0 30.0)
  end
  begin
     id 14 
     name lowerneck
     direction -0.0481835 0.99872 -0.0153927   
     length 1.63078   
     axis 0 0 0   XYZ
    dof rx ry rz
    limits (-20.0 45.0)
           (-30.0 30.0)
           (-30.0 30.0)
  end
  begin
     id 15 
     name upperneck
     direction 0.0859716 0.979226 -0.183644   
     length 1.62591   
     axis 0 0 0   XYZ
    dof rx ry rz
    limits (-20.0 45.0)
           (-30.0 30.0)
           (-30.0 30.0)
  end
  begin
     id 16
     name head
     direction 0.0324821 0.997629 -0.0606773  
     length 1.64811  
     axis 0 0 0   XYZ
    dof rx ry rz
    limits (-20.0 45.0)
           (-30.0 30.0)
           (-30.0 30.0)
  end
  begin
     id 17 
     name lclavicle
     direction 0.939609 0.311019 0.142835  
     length 3.70647  
     axis 0 0 0   XYZ
    dof ry rz
    limits (-20.0 10.0)
           (0.0 20.0)
  end
  begin
     id 18 
     name lhumerus
     direction 1 -4.48963e-011 -1.59838e-027   
     length 4.59207   
     axis 180 -30 -90   XYZ
    dof rx ry rz
    limits (-60.0 90.0)
           (-90.0 90.0)
           (-90.0 90.0)
  end
  begin
     id 19
     name lradius
     direction 1 -4.48957e-011 -1.3483e-026   
     length 2.98109   
     axis 180 -30 -90   XYZ
    dof rx
    limits (-10.0 170.0)
  end
  begin
     id 20
     name lwrist
     direction 1 -4.48954e-011 -3.11579e-026   
     length 1.49055   
     axis 2.00652e-014 90 90   XYZ
    dof ry
    limits (-180.0 0.0)
 end
  begin
     id 21 
     name lhand
     direction 1 -4.4911e-011 -6.23158e-026   
     length 0.480203   
     axis 3.97628e-014 90 90   XYZ
    dof rx rz
    limits (-90.0 90.0)
           (-45.0 45.0)
  end
  begin
     id 22 
     name lfingers
     direction 1 -4.48893e-011 -1.24632e-025   
     length 0.387152   
     axis 7.95256e-014 90 90   XYZ
    dof rx
    limits (0.0 90.0)
  end
  begin
     id 23
     name lthumb
     direction 0.707107 -6.35013e-011 0.707107   
     length 0.555875   
     axis -90 45 2.85299e-015   XYZ
    dof rx rz
    limits (-45.0 45.0)
           (-45.0 45.0)
  end
  begin
     id 24 
     name rclavicle
     direction -0.950396 0.30392 0.0661859   
     length 3.70894  
     axis 0 0 0   XYZ 
    dof ry rz
    limits (-10.0 20.0)
           (-20.0 0.0)
  end
  begin
     id 25 
     name rhumerus
     direction -1 -4.48957e-011 -2.96677e-027  
     length 4.76508   
     axis 180 30 90   XYZ
    dof rx ry rz
    limits (-90.0 60.0)
           (-90.0 90.0)
           (-90.0 90.0)
  end
  begin
     id 26 
     name rradius
     direction -1 -4.48974e-011 -1.44501e-026   
     length 2.78902   
     axis 180 30 90   XYZ
    dof rx
    limits (-10.0 170.0)
  end
  begin
     id 27 
     name rwrist
     direction -1 -4.48978e-011 -3.11579e-026   
     length 1.39451   
     axis 2.00652e-014 -90 -90   XYZ
    dof ry
    limits (-180.0 0.0)
  end
  begin
     id 28
     name rhand
     direction -1 -4.48956e-011 -6.23158e-026   
     length 0.721303   
     axis 3.97628e-014 -90 -90   XYZ
    dof rx rz
    limits (-90.0 90.0)
           (-45.0 45.0)
  end
  begin
     id 29
     name rfingers
     direction -1 -4.4899e-011 -1.24632e-025   
     length 0.581533   
     axis 7.95256e-014 -90 -90   XYZ
    dof rx
    limits (0.0 90.0)
  end
  begin
     id 30
     name rthumb
     direction -0.707107 -6.34911e-011 0.707107   
     length 0.834968   
     axis -90 -45 -2.85299e-015   XYZ
    dof rx rz
    limits (-45.0 45.0)
           (-45.0 45.0)
  end
:hierarchy
  begin
    root lhipjoint rhipjoint lowerback
    lhipjoint lfemur
    lfemur ltibia
    ltibia lfoot
    lfoot ltoes
    rhipjoint rfemur
    rfemur rtibia
    rtibia rfoot
    rfoot rtoes
    lowerback upperback
    upperback thorax
    thorax lowerneck lclavicle rclavicle
    lowerneck upperneck
    upperneck head
    lclavicle lhumerus
    lhumerus lradius
    lradius lwrist
    lwrist lhand lthumb
    lhand lfingers
    rclavicle rhumerus
    rhumerus rradius
    rradius rwrist
    rwrist rhand rthumb
    rhand rfingers
  end

#!OML:ASF I:\salsa\salsa 7_09\Patient 1\Session 1\dancerfemale.ASF
:FULLY-SPECIFIED
:DEGREES
529
root 1.5922 16.0381 -3.56254 -351.59 312.971 719.787
lowerback 5.38535 2.36046 0.932729
upperback -7.80789 3.31694 0.940915
thorax -11.3998 1.53842 -0.00358432
lowerneck 3.28062 0.0457589 -6.17986
upperneck 4.60533 -0.00707248 -5.41879
head 0.873007 -0.176396 -0.649542
rclavicle 2.0773e-014 -9.93923e-015
rhumerus -33.8735 19.301 -105.968
rradius 99.0323
rwrist -15.3532
rhand -2.10025 55.2164
rfingers 7.12502
rthumb 23.5772 26.6417
lclavicle 2.0773e-014 -9.93923e-015
lhumerus 51.7473 -3.06674 62.4408
lradius 90.088
lwrist -24.1241
lhand -31.9006 51.5944
lfingers 7.12502
lthumb -5.15271 81.5117
rfemur -35.8629 6.41496 4.36843
rtibia 44.4972
rfoot -9.59447 -4.21549
rtoes -38.3178
lfemur -15.7047 -17.226 -30.0142
ltibia 37.2535
lfoot -11.1275 -18.8406
ltoes 29.4312
530
root 1.22151 16.1804 -3.65557 -350.929 320.87 719.744
lowerback 4.95853 2.59845 0.503651
upperback -7.94245 3.61025 1.03481
thorax -11.3279 1.72875 0.307624
lowerneck 3.88363 -1.12501 -5.27995
upperneck 4.41387 -1.55776 -7.08661
head 0.700147 -0.924844 -1.30509
rclavicle 1.49089e-016 -2.0276e-014
rhumerus -33.7707 22.2724 -107.945
rradius 100.02
rwrist -16.293
rhand -0.279904 55.687
rfingers 7.12502
rthumb 25.3222 27.348
lclavicle 1.49089e-016 -2.0276e-014
lhumerus 55.212 -3.78855 60.8736
lradius 91.007
lwrist -23.6292
lhand -32.5849 51.1695
lfingers 7.12502
lthumb -5.81347 81.0698
rfemur -34.8233 8.07676 3.1145
rtibia 39.5069
rfoot -9.25829 -1.3442
rtoes -44.5864
lfemur -15.5324 -19.3504 -27.5598
ltibia 36.6412
lfoot -8.19969 -22.0832
ltoes 30.0256
531
root 0.846168 16.3134 -3.73105 -350.068 329.055 719.423
lowerback 4.78676 2.2854 1.09831
upperback -8.11037 3.26685 1.09853
thorax -11.3804 1.52026 0.0986993
lowerneck 3.68912 -1.69468 -5.71883
upperneck 4.65426 -2.276 -7.39966
head 0.801673 -1.30136 -1.33275
rclavicle -4.92986e-014 -1.43125e-014
rhumerus -33.4773 25.5315 -110.552
rradius 100.49
rwrist -17.2625
rhand 1.26356 57.9055
rfingers 7.12502
rthumb 26.8001 29.7843
lclavicle -4.92986e-014 -1.43125e-014
lhumerus 58.1014 -2.80493 58.637
lradius 91.5096
lwrist -23.4832
lhand -33.0964 50.6296
lfingers 7.12502
lthumb -6.30731 80.5157
rfemur -33.5625 10.25 1.63696
rtibia 34.8826
rfoot -8.7474 2.28099
rtoes -43.2252
lfemur -15.7359 -21.1803 -24.5524
ltibia 35.8596
lfoot -5.50004 -25.3823
ltoes 29.4657
532
root 0.456114 16.4487 -3.78861 -349.362 337.456 719.431
lowerback 4.4519 2.0692 0.620438
upperback -8.28084 2.99469 1.69317
thorax -11.4341 1.46902 1.05275
lowerneck 3.21582 -2.18731 -8.0997
upperneck 5.45376 -2.89661 -6.353
head 1.17772 -1.68561 -0.638901
rclavicle 3.78188e-014 -8.74653e-015
rhumerus -33.9538 28.9387 -112.009
rradius 101.034
rwrist -18.3145
rhand 0.924359 56.0315
rfingers 7.12502
rthumb 26.4754 27.861
lclavicle 3.78188e-014 -8.74653e-015
lhumerus 60.5201 -1.32003 57.5835
lradius 92.0418
lwrist -23.6314
lhand -33.7622 50.0639
lfingers 7.12502
lthumb -6.94998 79.9298
rfemur -32.2489 11.2112 0.642612
rtibia 31.1898
rfoot -6.07722 7.59025
rtoes -41.8014
lfemur -16.3659 -22.7229 -21.5567
ltibia 34.9322
lfoot -2.82554 -28.3942
ltoes 28.3349
533
root 0.0468811 16.5806 -3.82328 -348.623 345.814 719.721
lowerback 4.08533 2.01333 0.273791
upperback -8.60398 2.8993 1.65457
thorax -11.5941 1.46007 1.22552
lowerneck 4.02468 -3.1358 -8.08971
upperneck 5.21425 -4.23709 -6.81476
head 0.967148 -2.32162 -0.768038
rclavicle 3.03644e-014 3.57812e-014
rhumerus -34.5964 30.8821 -113.897
rradius 101.588
rwrist -19.3641
rhand 3.0567 57.2249
rfingers 7.12502
rthumb 28.5147 29.3788
lclavicle 3.03644e-014 3.57812e-014
lhumerus 63.2947 -0.346525 56.3183
lradius 92.0333
lwrist -23.603
lhand -34.3937 49.2718
lfingers 7.12502
lthumb -7.55954 79.1167
rfemur -30.7629 11.348 0.0572248
rtibia 28.2328
rfoot -3.30459 10.6911
rtoes -41.4027
lfemur -17.5239 -24.1536 -18.6446
ltibia 34.0177
lfoot 0.284231 -30.3465
ltoes 29.5415
534
root -0.379452 16.7066 -3.82717 -348.006 353.944 719.549
lowerback 3.90433 1.97385 0.394215
upperback -8.80684 2.87912 1.6518
thorax -11.7091 1.44858 1.16037
lowerneck 4.54896 -4.13915 -8.00217
upperneck 5.20455 -5.60599 -6.9664
head 0.877504 -2.98354 -0.814647
rclavicle -3.23522e-014 0
rhumerus -35.2511 32.7331 -116.222
rradius 101.689
rwrist -19.8931
rhand 1.55473 55.7514
rfingers 7.12502
rthumb 27.0787 27.6732
lclavicle -3.23522e-014 0
lhumerus 65.7432 1.09851 54.6103
lradius 92.7735
lwrist -22.6347
lhand -34.243 47.898
lfingers 7.12502
lthumb -7.41412 77.7481
rfemur -28.7453 10.6369 1.21407
rtibia 26.1383
rfoot 0.178625 14.5822
rtoes -41.6389
lfemur -18.6054 -25.255 -15.3969
ltibia 33.4627
lfoot 1.35248 -31.3006
ltoes 27.722
535
root -0.803255 16.8165 -3.80412 -347.396 361.904 719.472
lowerback 2.54798 2.20203 -1.2299
upperback -8.2864 3.15726 2.87831
thorax -10.4872 1.79828 3.40085
lowerneck 4.94256 -5.48605 -8.76087
upperneck 4.44407 -7.49859 -7.8377
head 0.580134 -3.88084 -0.930034
rclavicle 2.70844e-014 -1.51076e-014
rhumerus -35.1575 35.4559 -114.979
rradius 102.366
rwrist -21.2726
rhand -0.346674 57.3091
rfingers 7.12502
rthumb 25.2583 28.9611
lclavicle 2.70844e-014 -1.51076e-014
lhumerus 68.7266 3.21846 55.8113
lradius 92.2659
lwrist -22.009
lhand -34.4872 45.2961
lfingers 7.12502
lthumb -7.64981 75.1377
rfemur -26.8468 10.5969 2.18129
rtibia 24.7017
rfoot 6.53909 14.1846
rtoes -34.7053
lfemur -19.8573 -25.9725 -12.5955
ltibia 33.3397
lfoot 1.14181 -28.6947
ltoes 25.2082
536
root -1.2271 16.8748 -3.76282 -346.713 369.871 719.305
lowerback 3.04912 1.86487 0.377561
upperback -9.07166 2.7918 1.90297
thorax -11.5039 1.44526 1.47373
lowerneck 5.78477 -6.24575 -8.27353
upperneck 4.61099 -8.56954 -6.95919
head 0.516754 -4.39158 -0.706708
rclavicle 1.50082e-014 -1.66979e-014
rhumerus -36.2329 36.0594 -119.087
rradius 102.972
rwrist -23.5726
rhand 3.61467 53.3851
rfingers 7.12502
rthumb 29.0478 25.6296
lclavicle 1.50082e-014 -1.66979e-014
lhumerus 70.5649 4.66727 53.1381
lradius 91.8173
lwrist -20.8953
lhand -35.1115 43.2822
lfingers 7.12502
lthumb -8.25242 73.101
rfemur -24.3937 10.0526 3.7818
rtibia 23.8703
rfoot 6.15073 13.2622
rtoes -43.402
lfemur -21.3383 -25.9144 -10.0947
ltibia 33.9318
lfoot -0.84265 -21.9976
ltoes 21.3049
537
root -1.63793 16.9005 -3.67961 -346.077 377.772 719.615
lowerback 2.47592 1.82181 0.400082
upperback -9.30506 2.71763 1.49576
thorax -11.3928 1.39737 1.04585
lowerneck 7.05062 -7.41364 -7.93327
upperneck 4.34189 -10.2511 -6.59793
head 0.244348 -5.17931 -0.577419
rclavicle -2.87741e-014 -2.3059e-014
rhumerus -36.8841 36.6381 -120.929
rradius 103.04
rwrist -25.7816
rhand 5.72102 52.9439
rfingers 7.12502
rthumb 31.0575 25.5534
lclavicle -2.87741e-014 -2.3059e-014
lhumerus 72.8275 5.93172 52.2409
lradius 90.9071
lwrist -20.837
lhand -35.7496 41.8884
lfingers 7.12502
lthumb -8.86815 71.682
rfemur -22.1479 8.58808 5.42118
rtibia 24.0551
rfoot 4.80916 8.6082
rtoes -45.8619
lfemur -22.4612 -24.8171 -8.95026
ltibia 35.0103
lfoot -3.3398 -11.4293
ltoes 21.487
538
root -2.03412 16.8809 -3.57292 -345.393 385.874 719.956
lowerback 1.78708 1.24907 0.452235
upperback -9.65888 1.98382 1.61792
thorax -11.3652 1.05864 1.24975
lowerneck 8.51902 -8.03493 -9.0941
upperneck 4.37797 -11.301 -5.99969
head 0.131517 -5.68796 -0.154124
rclavicle 4.01048e-014 2.62396e-014
rhumerus -38.9479 38.4145 -123.548
rradius 102.764
rwrist -28.1643
rhand 6.00117 52.5906
rfingers 7.12502
rthumb 31.3244 25.2514
lclavicle 4.01048e-014 2.62396e-014
lhumerus 73.2647 8.19269 50.7268
lradius 90.3338
lwrist -20.9481
lhand -36.3485 40.8996
lfingers 7.12502
lthumb -9.44607 70.6679
rfemur -20.3244 4.79521 7.90871
rtibia 24.8481
rfoot 2.87022 5.35781
rtoes -47.4108
lfemur -23.5887 -21.1431 -8.97211
ltibia 36.4851
lfoot -8.74609 -0.105979
ltoes 16.0898
539
root -2.39664 16.797 -3.45933 -344.648 394.243 720.329
lowerback 0.892277 1.09768 0.527477
upperback -9.91497 1.80115 1.49173
thorax -11.1017 0.974234 1.10658
lowerneck 9.37029 -9.28097 -9.32514
upperneck 5.3103 -12.9727 -5.80972
head 0.342341 -6.54944 -0.0346514
rclavicle -1.226e-013 -2.70347e-014
rhumerus -39.7318 38.9841 -124.672
rradius 102.82
rwrist -30.4018
rhand 5.68719 51.404
rfingers 7.12502
rthumb 31.0252 24.0074
lclavicle -1.226e-013 -2.70347e-014
lhumerus 74.8898 8.99488 50.3006
lradius 88.6973
lwrist -21.2194
lhand -37.2543 39.2841
lfingers 7.12502
lthumb -10.32 69.0109
rfemur -19.1451 -1.92504 10.9106
rtibia 26.0387
rfoot 0.803466 3.99541
rtoes -47.1208
lfemur -24.7975 -16.3734 -9.38173
ltibia 37.8857
lfoot -15.2594 10.8848
ltoes 8.74714
540
root -2.7134 16.7486 -3.32819 -344.096 402.652 720.32
lowerback -0.149218 0.895029 0.970912
upperback -10.2313 1.60106 1.61103
thorax -10.8214 0.866227 1.02141
lowerneck 10.2162 -10.3157 -10.0395
upperneck 6.60855 -14.3802 -5.32858
head 0.734952 -7.30797 0.218757
rclavicle -4.14466e-014 9.54166e-015
rhumerus -40.7311 39.6996 -125.721
rradius 102.896
rwrist -32.3152
rhand 8.252 50.6335
rfingers 7.12502
rthumb 33.4666 23.7329
lclavicle -4.14466e-014 9.54166e-015
lhumerus 75.5446 10.0736 49.3622
lradius 87.9468
lwrist -21.063
lhand -37.9854 38.8134
lfingers 7.12502
lthumb -11.0252 68.5039
rfemur -18.2959 -8.33982 14.2845
rtibia 26.8622
rfoot -1.11701 1.45923
rtoes -46.5761
lfemur -25.7721 -9.90715 -10.134
ltibia 39.1016
lfoot -20.0752 19.7338
ltoes -7.40533
541
root -3.01802 16.7352 -3.20681 -343.65 411.141 720.715
lowerback -0.649594 0.635523 1.11404
upperback -10.3813 1.31169 1.78616
thorax -10.6897 0.742251 1.15877
lowerneck 11.0768 -11.6164 -10.1813
upperneck 7.20894 -16.1328 -5.52947
head 0.831698 -8.1843 0.21634
rclavicle 3.21037e-014 -1.74931e-014
rhumerus -40.7657 39.3571 -126.782
rradius 102.314
rwrist -32.1588
rhand 9.14759 49.2287
rfingers 7.12502
rthumb 34.3174 22.516
lclavicle 3.21037e-014 -1.74931e-014
lhumerus 76.0066 11.4029 48.8238
lradius 87.5618
lwrist -21.8049
lhand -38.3139 36.4169
lfingers 7.12502
lthumb -11.342 66.0902
rfemur -17.3385 -11.1263 17.0994
rtibia 27.4007
rfoot -2.71312 -4.84476
rtoes -45.8112
lfemur -26.2412 -2.04533 -11.3397
ltibia 40.1163
lfoot -23.502 22.4521
ltoes -17.532
542
root -3.27304 16.7873 -3.10666 -342.581 419.434 722.552
lowerback -0.336134 0.445662 1.0391
upperback -10.4321 1.0911 1.72425
thorax -10.9338 0.652284 1.14763
lowerneck 11.7145 -12.84 -10.4467
upperneck 8.07116 -17.7426 -5.67007
head 1.06393 -9.00736 0.218936
rclavicle 1.30204e-014 -1.74931e-014
rhumerus -41.9479 40.0933 -127.295
rradius 102.205
rwrist -32.636
rhand 8.62372 48.0112
rfingers 7.12502
rthumb 33.8198 21.1876
lclavicle 1.30204e-014 -1.74931e-014
lhumerus 76.1619 12.4871 48.1364
lradius 87.6193
lwrist -22.3892
lhand -39.1863 36.1762
lfingers 7.12502
lthumb -12.1833 65.8014
rfemur -15.7352 -13.1657 18.6465
rtibia 27.2954
rfoot -4.10172 -10.6149
rtoes -44.0254
lfemur -25.9655 4.21992 -13.4858
ltibia 40.9484
lfoot -23.5613 22.9771
ltoes -22.1238
